<?xml version="1.0" encoding="UTF-8" standalone="no"?>
<!-- Created with Inkscape (http://www.inkscape.org/) -->

<svg
   width="512"
   height="512"
   viewBox="0 0 512 512"
   version="1.1"
   id="svg1"
   sodipodi:docname="OpticalMediaIsPeak.svg"
   inkscape:version="1.3.2 (091e20ef0f, 2023-11-25)"
   inkscape:export-filename="OpticalMediaIsPeak.png"
   inkscape:export-xdpi="18.75"
   inkscape:export-ydpi="18.75"
   xmlns:inkscape="http://www.inkscape.org/namespaces/inkscape"
   xmlns:sodipodi="http://sodipodi.sourceforge.net/DTD/sodipodi-0.dtd"
   xmlns="http://www.w3.org/2000/svg"
   xmlns:svg="http://www.w3.org/2000/svg">
  <sodipodi:namedview
     id="namedview1"
     pagecolor="#ffffff"
     bordercolor="#000000"
     borderopacity="0.25"
     inkscape:showpageshadow="2"
     inkscape:pageopacity="0.0"
     inkscape:pagecheckerboard="0"
     inkscape:deskcolor="#d1d1d1"
     inkscape:document-units="px"
     inkscape:zoom="9.515625"
     inkscape:cx="284.58457"
     inkscape:cy="112.81445"
     inkscape:window-width="1876"
     inkscape:window-height="993"
     inkscape:window-x="0"
     inkscape:window-y="0"
     inkscape:window-maximized="1"
     inkscape:current-layer="layer1"
     inkscape:export-bgcolor="#ffffffff" />
  <defs
     id="defs1">
    <inkscape:path-effect
       effect="bspline"
       id="path-effect30"
       is_visible="true"
       lpeversion="1.3"
       weight="33.333333"
       steps="2"
       helper_size="0"
       apply_no_weight="true"
       apply_with_weight="true"
       only_selected="false"
       uniform="false" />
    <inkscape:path-effect
       effect="bspline"
       id="path-effect28"
       is_visible="true"
       lpeversion="1.3"
       weight="33.333333"
       steps="2"
       helper_size="0"
       apply_no_weight="true"
       apply_with_weight="true"
       only_selected="false"
       uniform="false" />
    <inkscape:path-effect
       effect="bspline"
       id="path-effect27"
       is_visible="true"
       lpeversion="1.3"
       weight="33.333333"
       steps="2"
       helper_size="0"
       apply_no_weight="true"
       apply_with_weight="true"
       only_selected="false"
       uniform="false" />
    <inkscape:path-effect
       effect="bspline"
       id="path-effect26"
       is_visible="true"
       lpeversion="1.3"
       weight="33.333333"
       steps="2"
       helper_size="0"
       apply_no_weight="true"
       apply_with_weight="true"
       only_selected="false"
       uniform="false" />
    <inkscape:path-effect
       effect="bspline"
       id="path-effect12"
       is_visible="true"
       lpeversion="1.3"
       weight="33.333333"
       steps="2"
       helper_size="0"
       apply_no_weight="true"
       apply_with_weight="true"
       only_selected="false"
       uniform="false" />
    <inkscape:path-effect
       effect="bspline"
       id="path-effect9"
       is_visible="true"
       lpeversion="1.3"
       weight="33.333333"
       steps="2"
       helper_size="0"
       apply_no_weight="true"
       apply_with_weight="true"
       only_selected="false"
       uniform="false" />
  </defs>
  <g
     inkscape:label="Layer 1"
     inkscape:groupmode="layer"
     id="layer1">
    <ellipse
       style="fill:none;stroke:#000000;stroke-width:7;stroke-opacity:1;stroke-dasharray:none"
       id="path1"
       cx="256.00003"
       cy="256.00003"
       rx="242.37878"
       ry="242.37877" />
    <g
       id="g49"
       transform="translate(13,-9)">
      <path
         id="path25"
         style="fill:none;fill-opacity:1;stroke:#000000;stroke-width:4;stroke-dasharray:none;stroke-opacity:1"
         d="m 375.33984,144.92188 a 78.091019,78.091019 0 0 0 -44.92773,14.42578 28.834682,28.834682 0 0 1 28.55469,28.82617 28.834682,28.834682 0 0 1 -28.83399,28.83594 28.834682,28.834682 0 0 1 -27.77539,-21.20899 78.091019,78.091019 0 0 0 -5.10742,27.21289 78.091019,78.091019 0 0 0 78.08984,78.0918 78.091019,78.091019 0 0 0 78.0918,-78.0918 78.091019,78.091019 0 0 0 -78.0918,-78.09179 z" />
      <circle
         style="fill:none;fill-opacity:1;stroke:#000000;stroke-width:4;stroke-dasharray:none;stroke-opacity:1"
         id="path29"
         cx="409.39999"
         cy="223.01353"
         r="35.497444" />
      <path
         style="fill:none;fill-opacity:1;stroke:#000000;stroke-width:4;stroke-dasharray:none;stroke-opacity:1"
         d="M 409.39999,187.51609 375.3407,144.92252"
         id="path31" />
      <path
         style="fill:none;fill-opacity:1;stroke:#000000;stroke-width:4;stroke-dasharray:none;stroke-opacity:1"
         d="M 409.39999,258.51098 375.3407,301.10455"
         id="path32" />
      <circle
         style="fill:#000000;fill-opacity:1;stroke:none;stroke-width:4;stroke-dasharray:none;stroke-opacity:1"
         id="path36"
         cx="330.13211"
         cy="188.17412"
         r="6.3205342" />
      <circle
         style="fill:#000000;fill-opacity:1;stroke:none;stroke-width:4;stroke-dasharray:none;stroke-opacity:1"
         id="path38"
         cx="358.9668"
         cy="188.17412"
         r="5.9827766" />
      <circle
         style="fill:#000000;fill-opacity:1;stroke:none;stroke-width:4;stroke-dasharray:none;stroke-opacity:1"
         id="path41"
         cx="330.13281"
         cy="217.00977"
         r="6.004952" />
      <circle
         style="fill:none;fill-opacity:1;stroke:#000000;stroke-width:4;stroke-dasharray:none;stroke-opacity:1"
         id="path42"
         cx="300.51645"
         cy="245.36374"
         r="11.378161" />
      <path
         id="path43"
         style="fill:none;fill-opacity:1;stroke:#000000;stroke-width:3.64902;stroke-dasharray:none;stroke-opacity:1"
         d="m 311.06937,241.14871 a 117.96718,117.96718 0 0 1 62.83319,-18.12608" />
      <circle
         style="fill:none;fill-opacity:1;stroke:#000000;stroke-width:4;stroke-dasharray:none;stroke-opacity:1"
         id="circle47"
         cx="409.39999"
         cy="223.01353"
         r="6.8809733" />
      <circle
         style="fill:none;fill-opacity:1;stroke:#000000;stroke-width:4;stroke-dasharray:none;stroke-opacity:1"
         id="path49"
         cx="-300.84296"
         cy="-275.88882"
         r="8.1060095"
         transform="scale(-1)" />
    </g>
    <g
       id="g67"
       transform="matrix(1.0329646,-1.0329646,1.0329646,1.0329646,-214.25418,170.05547)"
       style="stroke-width:2.80662;stroke-dasharray:none">
      <circle
         style="fill:none;fill-opacity:1;stroke:#000000;stroke-width:2.80662;stroke-dasharray:none;stroke-opacity:1"
         id="path56"
         cx="146.95297"
         cy="188.8123"
         r="56.109314" />
      <circle
         style="fill:none;fill-opacity:1;stroke:#000000;stroke-width:2.80662;stroke-dasharray:none;stroke-opacity:1"
         id="path59"
         cx="146.95297"
         cy="158.3186"
         r="18.078953" />
      <circle
         style="fill:none;fill-opacity:1;stroke:#000000;stroke-width:2.80662;stroke-dasharray:none;stroke-opacity:1"
         id="path60"
         cx="146.95297"
         cy="213.31836"
         r="24.066597" />
      <circle
         style="fill:none;fill-opacity:1;stroke:#000000;stroke-width:2.80662;stroke-dasharray:none;stroke-opacity:1"
         id="circle60"
         cx="217.3925"
         cy="188.8123"
         r="8.3302126" />
      <circle
         style="fill:none;fill-opacity:1;stroke:#000000;stroke-width:2.80662;stroke-dasharray:none;stroke-opacity:1"
         id="circle61"
         cx="146.95297"
         cy="213.31836"
         r="5.7867155" />
      <path
         style="fill:none;fill-opacity:1;stroke:#000000;stroke-width:2.80662;stroke-dasharray:none;stroke-opacity:1"
         d="M 171.01957,213.31836 203.06229,188.8123"
         id="path61" />
      <path
         style="fill:none;fill-opacity:1;stroke:#000000;stroke-width:2.80662;stroke-dasharray:none;stroke-opacity:1"
         d="M 122.88638,213.31836 90.843658,188.8123"
         id="path62" />
      <circle
         style="fill:#000000;fill-opacity:1;stroke:#000000;stroke-width:2.80662;stroke-dasharray:none;stroke-opacity:1"
         id="path63"
         cx="128.87402"
         cy="158.3186"
         r="4.806396" />
      <circle
         style="fill:#000000;fill-opacity:1;stroke:#000000;stroke-width:2.80662;stroke-dasharray:none;stroke-opacity:1"
         id="path64"
         cx="165.03192"
         cy="158.3186"
         r="4.8020921" />
    </g>
    <g
       id="g66"
       transform="translate(0,-2)">
      <path
         id="path2"
         style="fill:none;stroke:#000000;stroke-width:4;stroke-dasharray:none;stroke-opacity:1"
         d="m 259.46289,294.11719 a 91.929649,91.929649 0 0 0 -91.92969,91.92969 91.929649,91.929649 0 0 0 91.92969,91.92968 91.929649,91.929649 0 0 0 91.92969,-91.92968 91.929649,91.929649 0 0 0 -6.74805,-34.53516 40.42667,40.42667 0 0 1 -10.11914,1.35937 40.42667,40.42667 0 0 1 -40.42578,-40.42578 40.42667,40.42667 0 0 1 1.5293,-10.89453 91.929649,91.929649 0 0 0 -36.16602,-7.43359 z" />
      <circle
         style="fill:none;stroke:#000000;stroke-width:4;stroke-dasharray:none;stroke-opacity:1"
         id="path4"
         cx="259.46371"
         cy="441.95276"
         r="29.247099" />
      <circle
         style="fill:none;stroke:#000000;stroke-width:4;stroke-dasharray:none;stroke-opacity:1"
         id="path5"
         cx="259.46371"
         cy="412.70566"
         r="11.099631" />
      <path
         style="fill:none;stroke:#000000;stroke-width:4;stroke-dasharray:none;stroke-opacity:1"
         d="m 259.46371,401.60603 v 22.19926"
         id="path6" />
      <path
         style="fill:none;stroke:#000000;stroke-width:4;stroke-dasharray:none;stroke-opacity:1"
         d="m 288.71081,441.95276 62.68255,-55.90604"
         id="path7" />
      <path
         style="fill:none;stroke:#000000;stroke-width:4;stroke-dasharray:none;stroke-opacity:1"
         d="M 230.21662,441.95276 167.53407,386.04672"
         id="path8" />
      <circle
         style="fill:none;stroke:#000000;stroke-width:4;stroke-dasharray:none;stroke-opacity:1"
         id="path10"
         cx="324.78641"
         cy="321.36282"
         r="8.9512787" />
      <path
         style="fill:none;stroke:#000000;stroke-width:4;stroke-dasharray:none;stroke-opacity:1"
         d="M 315.83513,321.36282 167.5332,386.04688"
         id="path11" />
      <circle
         style="fill:none;stroke:#000000;stroke-width:4;stroke-dasharray:none;stroke-opacity:1"
         id="path14"
         cx="210.57378"
         cy="340.62134"
         r="15.563085" />
      <circle
         style="fill:none;stroke:#000000;stroke-width:4;stroke-dasharray:none;stroke-opacity:1"
         id="path16"
         cx="254.18224"
         cy="316.21729"
         r="11.694948" />
      <circle
         style="fill:none;stroke:#000000;stroke-width:4;stroke-dasharray:none;stroke-opacity:1"
         id="path18"
         cx="214.39354"
         cy="291.0892"
         r="6.8338799" />
      <circle
         style="fill:#000000;fill-opacity:1;stroke:none;stroke-width:4;stroke-dasharray:none;stroke-opacity:1"
         id="path20"
         cx="254.18224"
         cy="304.52234"
         r="4.584096" />
      <circle
         style="fill:#000000;fill-opacity:1;stroke:none;stroke-width:4;stroke-dasharray:none;stroke-opacity:1"
         id="path21"
         cx="254.18224"
         cy="327.91223"
         r="4.584096" />
      <circle
         style="fill:#000000;fill-opacity:1;stroke:none;stroke-width:4;stroke-dasharray:none;stroke-opacity:1"
         id="path22"
         cx="210.57378"
         cy="356.18442"
         r="5.0424604" />
      <circle
         style="fill:#000000;fill-opacity:1;stroke:none;stroke-width:4;stroke-dasharray:none;stroke-opacity:1"
         id="path23"
         cx="226.13686"
         cy="340.62134"
         r="5.0416393" />
      <circle
         style="fill:#000000;fill-opacity:1;stroke:none;stroke-width:4;stroke-dasharray:none;stroke-opacity:1"
         id="path24"
         cx="210.57378"
         cy="325.05826"
         r="5.0338006" />
      <circle
         style="fill:#000000;fill-opacity:1;stroke:none;stroke-width:4;stroke-dasharray:none;stroke-opacity:1"
         id="path65"
         cx="265.8772"
         cy="316.21729"
         r="4.5911593" />
      <circle
         style="fill:#000000;fill-opacity:1;stroke:none;stroke-width:4;stroke-dasharray:none;stroke-opacity:1"
         id="path66"
         cx="242.48729"
         cy="316.21729"
         r="4.588222" />
    </g>
    <path
       id="path139"
       style="fill:none;stroke:#000000;stroke-width:5;stroke-dasharray:none;stroke-opacity:1"
       d="M 37.144531 328.21484 A 231.20435 231.20433 0 0 0 43.800781 346.98242 A 45.966103 45.966103 0 0 1 65.677734 341.30859 A 45.966103 45.966103 0 0 1 111.64453 387.27539 A 45.966103 45.966103 0 0 1 95.828125 421.9668 A 231.20435 231.20433 0 0 0 110.83398 434.76758 " />
    <path
       id="path39"
       style="fill:none;stroke:#000000;stroke-width:5;stroke-dasharray:none;stroke-opacity:1"
       d="M 256 24.794922 A 231.20435 231.20433 0 0 0 232.17969 26.025391 L 232.11719 26.046875 A 55.900955 55.900955 0 0 1 233.53516 38.480469 A 55.900955 55.900955 0 0 1 177.63477 94.380859 A 55.900955 55.900955 0 0 1 127.81641 63.591797 L 127.78711 63.601562 A 231.20435 231.20433 0 0 0 24.794922 256 A 231.20435 231.20433 0 0 0 37.144531 328.21484 A 65.678337 65.678337 0 0 1 65.677734 321.5957 A 65.678337 65.678337 0 0 1 131.35742 387.27539 A 65.678337 65.678337 0 0 1 110.83398 434.76758 A 231.20435 231.20433 0 0 0 256 487.20508 A 231.20435 231.20433 0 0 0 435.82812 401.25977 A 26.859791 26.859791 0 0 1 424.59961 379.49609 A 26.859791 26.859791 0 0 1 451.46094 352.63672 A 26.859791 26.859791 0 0 1 464.4375 355.98633 A 231.20435 231.20433 0 0 0 487.20508 256 A 231.20435 231.20433 0 0 0 256 24.794922 z " />
    <path
       id="path152"
       style="fill:none;fill-opacity:1;stroke:#000000;stroke-width:5;stroke-dasharray:none;stroke-opacity:1"
       d="M 409.00395 428.93243 A 65.165001 65.165001 0 0 1 386.29508 379.49606 A 65.165001 65.165001 0 0 1 451.46008 314.33106 A 65.165001 65.165001 0 0 1 477.89902 319.93551 " />
    <path
       id="path151"
       style="fill:none;fill-opacity:1;stroke:#000000;stroke-width:5;stroke-dasharray:none;stroke-opacity:1"
       d="M 421.7541 416.26935 A 47.272827 47.272827 0 0 1 404.18726 379.49606 A 47.272827 47.272827 0 0 1 451.46008 332.22324 A 47.272827 47.272827 0 0 1 471.91475 336.87768 " />
    <path
       id="circle139"
       style="fill:none;stroke:#000000;stroke-width:5;stroke-dasharray:none;stroke-opacity:1"
       d="M 252.75264 24.959606 A 76.32589 76.32589 0 0 1 253.95982 38.480709 L 253.95982 38.480709 A 76.32589 76.32589 0 0 1 177.63393 114.8066 A 76.32589 76.32589 0 0 1 111.32932 76.287335 " />
    <path
       id="path50"
       style="fill:none;fill-opacity:1;stroke:#000000;stroke-width:4;stroke-dasharray:none;stroke-opacity:1"
       d="m 289.27929,144.35464 a 40.523396,40.523396 0 0 0 40.52344,-40.52344 40.523396,40.523396 0 0 0 -9.84375,-26.466798 41.693085,20.846542 0 0 1 -30.67969,6.78906 41.693085,20.846542 0 0 1 -30.70898,-6.74609 40.523396,40.523396 0 0 0 -9.81445,26.423828 40.523396,40.523396 0 0 0 40.52343,40.52344 z" />
    <path
       style="fill:none;fill-opacity:1;stroke:#000000;stroke-width:4;stroke-dasharray:none;stroke-opacity:1"
       d="M 289.28015,135.87814 V 84.153462"
       id="path53" />
    <circle
       style="fill:none;stroke:#000000;stroke-width:4;stroke-dasharray:none"
       id="path3"
       cx="-289.28015"
       cy="-144.3539"
       r="8.4757538"
       transform="scale(-1)" />
    <path
       style="fill:none;stroke:#000000;stroke-width:4.24554084;stroke-dasharray:none"
       d="m 259.33234,131.13193 c 9.98232,-15.65949 19.96463,-31.318977 29.94695,-46.978468"
       id="path27"
       inkscape:path-effect="#path-effect28"
       inkscape:original-d="m 259.33234,131.13193 c 9.98231,-15.65949 19.96463,-31.318978 29.94695,-46.978468"
       transform="matrix(0.88470723,0,0,1.0033544,29.7819,-0.36107137)" />
    <path
       style="fill:none;stroke:#000000;stroke-width:4.24049726;stroke-dasharray:none"
       d="m 259.33234,131.13193 c 9.98232,-15.65949 19.96463,-31.318977 29.94695,-46.978468"
       id="path28"
       inkscape:path-effect="#path-effect30"
       inkscape:original-d="m 259.33234,131.13193 c 9.98231,-15.65949 19.96463,-31.318978 29.94695,-46.978468"
       transform="matrix(-0.88693304,0,0,1.0032186,549.35289,-0.34807947)" />
  </g>
</svg>
