<?xml version="1.0" encoding="UTF-8" standalone="no"?>
<!-- Created with Inkscape (http://www.inkscape.org/) -->

<svg
   width="512"
   height="512"
   viewBox="0 0 512 512"
   version="1.1"
   id="svg1"
   sodipodi:docname="Tick, Tock, Goes the Clock.svg"
   inkscape:version="1.3.2 (091e20ef0f, 2023-11-25)"
   inkscape:export-filename="Tick, Tock, Goes the Clock.png"
   inkscape:export-xdpi="384"
   inkscape:export-ydpi="384"
   xmlns:inkscape="http://www.inkscape.org/namespaces/inkscape"
   xmlns:sodipodi="http://sodipodi.sourceforge.net/DTD/sodipodi-0.dtd"
   xmlns="http://www.w3.org/2000/svg"
   xmlns:svg="http://www.w3.org/2000/svg">
  <sodipodi:namedview
     id="namedview1"
     pagecolor="#ffffff"
     bordercolor="#000000"
     borderopacity="0.25"
     inkscape:showpageshadow="2"
     inkscape:pageopacity="0.0"
     inkscape:pagecheckerboard="0"
     inkscape:deskcolor="#d1d1d1"
     inkscape:document-units="px"
     inkscape:zoom="2"
     inkscape:cx="294"
     inkscape:cy="203.25"
     inkscape:window-width="1876"
     inkscape:window-height="993"
     inkscape:window-x="0"
     inkscape:window-y="0"
     inkscape:window-maximized="1"
     inkscape:current-layer="layer1"
     inkscape:export-bgcolor="#ffffffff" />
  <defs
     id="defs1">
    <inkscape:path-effect
       effect="bspline"
       id="path-effect85"
       is_visible="true"
       lpeversion="1.3"
       weight="33.333333"
       steps="2"
       helper_size="0"
       apply_no_weight="true"
       apply_with_weight="true"
       only_selected="false"
       uniform="false" />
    <inkscape:path-effect
       effect="bspline"
       id="path-effect84"
       is_visible="true"
       lpeversion="1.3"
       weight="33.333333"
       steps="2"
       helper_size="0"
       apply_no_weight="true"
       apply_with_weight="true"
       only_selected="false"
       uniform="false" />
  </defs>
  <g
     inkscape:label="Layer 1"
     inkscape:groupmode="layer"
     id="layer1">
    <circle
       style="fill:none;fill-opacity:1;fill-rule:nonzero;stroke:#000000;stroke-width:4.9608;stroke-dasharray:none;stroke-opacity:1"
       id="path1"
       cx="256"
       cy="256"
       r="247.51959" />
    <ellipse
       style="fill:none;fill-opacity:1;fill-rule:nonzero;stroke:#000000;stroke-width:2.606;stroke-dasharray:none;stroke-opacity:1"
       id="path8"
       cx="243.67804"
       cy="327.27332"
       rx="2.8421709e-13"
       ry="1.7053026e-13" />
    <circle
       style="fill:#000000;fill-opacity:1;fill-rule:nonzero;stroke:#000000;stroke-width:2.89113;stroke-linejoin:miter;stroke-dasharray:none;stroke-opacity:1"
       id="path29"
       cx="385.86829"
       cy="426.34964"
       r="7.6987243" />
    <g
       id="g35">
      <g
         id="g29">
        <path
           id="path5"
           style="fill:none;fill-opacity:1;fill-rule:nonzero;stroke:#000000;stroke-width:2.606;stroke-dasharray:none;stroke-opacity:1"
           d="m 241.95596,336.71496 c 2.90057,8.46579 6.73594,16.61128 11.44428,24.22482 12.75674,20.87309 32.06341,37.62834 54.48027,47.40605 8.27555,3.64688 16.96011,6.33807 25.83522,8.03598" />
        <circle
           style="fill:none;fill-opacity:1;fill-rule:nonzero;stroke:#000000;stroke-width:2.606;stroke-linejoin:miter;stroke-dasharray:none;stroke-opacity:1"
           id="path13"
           cx="208.86188"
           cy="374.52985"
           r="16.215712" />
        <circle
           style="fill:none;fill-opacity:1;fill-rule:nonzero;stroke:#000000;stroke-width:2.606;stroke-linejoin:miter;stroke-dasharray:none;stroke-opacity:1"
           id="path14"
           cx="201.87334"
           cy="419.85715"
           r="15.895473" />
        <circle
           style="fill:#000000;fill-opacity:1;fill-rule:nonzero;stroke:#000000;stroke-width:2.606;stroke-linejoin:miter;stroke-dasharray:none;stroke-opacity:1"
           id="path15"
           cx="218.69417"
           cy="387.42462"
           r="4.4063053" />
        <circle
           style="fill:#000000;fill-opacity:1;fill-rule:nonzero;stroke:#000000;stroke-width:2.606;stroke-linejoin:miter;stroke-dasharray:none;stroke-opacity:1"
           id="path16"
           cx="217.97252"
           cy="361.11548"
           r="4.403204" />
        <circle
           style="fill:#000000;fill-opacity:1;fill-rule:nonzero;stroke:#000000;stroke-width:2.606;stroke-linejoin:miter;stroke-dasharray:none;stroke-opacity:1"
           id="path17"
           cx="214.47215"
           cy="410.1651"
           r="4.4061384" />
        <circle
           style="fill:#000000;fill-opacity:1;fill-rule:nonzero;stroke:#000000;stroke-width:2.606;stroke-linejoin:miter;stroke-dasharray:none;stroke-opacity:1"
           id="path18"
           cx="208.33046"
           cy="434.38202"
           r="4.4042425" />
        <circle
           style="fill:none;fill-opacity:1;fill-rule:nonzero;stroke:#000000;stroke-width:2.606;stroke-linejoin:miter;stroke-dasharray:none;stroke-opacity:1"
           id="path19"
           cx="241.72438"
           cy="327.60831"
           r="9.6683044" />
        <path
           id="path20"
           style="fill:none;fill-opacity:1;fill-rule:nonzero;stroke:#000000;stroke-width:2.606;stroke-linejoin:miter;stroke-dasharray:none;stroke-opacity:1"
           d="M 256,326.30273 A 78.198517,78.198524 0 0 0 177.80273,404.50195 78.198517,78.198524 0 0 0 256,482.69922 78.198517,78.198524 0 0 0 334.19922,404.50195 78.198517,78.198524 0 0 0 329.81445,378.72461 85.50609,85.50609 0 0 1 270.97852,327.75586 78.198517,78.198524 0 0 0 256,326.30273 Z" />
      </g>
      <g
         id="g34">
        <circle
           style="fill:none;fill-opacity:1;fill-rule:nonzero;stroke:#000000;stroke-width:2.606;stroke-linejoin:miter;stroke-dasharray:none;stroke-opacity:1"
           id="path13-6"
           cx="302.96957"
           cy="265.02371"
           r="16.215712" />
        <circle
           style="fill:none;fill-opacity:1;fill-rule:nonzero;stroke:#000000;stroke-width:2.606;stroke-linejoin:miter;stroke-dasharray:none;stroke-opacity:1"
           id="path14-1"
           cx="295.98102"
           cy="310.35101"
           r="15.895473" />
        <circle
           style="fill:#000000;fill-opacity:1;fill-rule:nonzero;stroke:#000000;stroke-width:2.606;stroke-linejoin:miter;stroke-dasharray:none;stroke-opacity:1"
           id="path15-8"
           cx="312.80185"
           cy="277.91849"
           r="4.4063053" />
        <circle
           style="fill:#000000;fill-opacity:1;fill-rule:nonzero;stroke:#000000;stroke-width:2.606;stroke-linejoin:miter;stroke-dasharray:none;stroke-opacity:1"
           id="path16-7"
           cx="312.0802"
           cy="251.60934"
           r="4.403204" />
        <circle
           style="fill:#000000;fill-opacity:1;fill-rule:nonzero;stroke:#000000;stroke-width:2.606;stroke-linejoin:miter;stroke-dasharray:none;stroke-opacity:1"
           id="path17-9"
           cx="308.57983"
           cy="300.65897"
           r="4.4061384" />
        <circle
           style="fill:#000000;fill-opacity:1;fill-rule:nonzero;stroke:#000000;stroke-width:2.606;stroke-linejoin:miter;stroke-dasharray:none;stroke-opacity:1"
           id="path18-2"
           cx="302.43814"
           cy="324.87589"
           r="4.4042425" />
        <path
           id="path3-6"
           style="fill:none;fill-opacity:1;fill-rule:nonzero;stroke:#000000;stroke-width:2.606;stroke-dasharray:none;stroke-opacity:1"
           d="m 350.10769,216.79659 a 78.696983,78.696983 0 0 0 -78.69727,78.69727 78.696983,78.696983 0 0 0 78.69727,78.69727 78.696983,78.696983 0 0 0 78.69727,-78.69727 78.696983,78.696983 0 0 0 -4.30665,-25.62305 55.999489,55.999489 0 0 1 -3.78124,0.27149 55.999489,55.999489 0 0 1 -55.70704,-51.91211 78.696983,78.696983 0 0 0 -14.90234,-1.4336 z" />
        <circle
           style="fill:none;fill-opacity:1;fill-rule:nonzero;stroke:#000000;stroke-width:2.606;stroke-linejoin:miter;stroke-dasharray:none;stroke-opacity:1"
           id="path34"
           cx="399.32471"
           cy="265.836"
           r="10.970772" />
      </g>
    </g>
    <g
       id="g42">
      <g
         id="g36">
        <circle
           style="fill:none;fill-opacity:1;fill-rule:nonzero;stroke:#000000;stroke-width:2.606;stroke-linejoin:miter;stroke-dasharray:none;stroke-opacity:1"
           id="path30"
           cx="166.28711"
           cy="195.71094"
           r="40.84375" />
        <circle
           style="fill:none;fill-opacity:1;fill-rule:nonzero;stroke:#000000;stroke-width:2.606;stroke-linejoin:miter;stroke-dasharray:none;stroke-opacity:1"
           id="path31"
           cx="136.63992"
           cy="167.61723"
           r="12.49116" />
        <circle
           style="fill:none;fill-opacity:1;fill-rule:nonzero;stroke:#000000;stroke-width:2.606;stroke-linejoin:miter;stroke-dasharray:none;stroke-opacity:1"
           id="circle31"
           cx="136.63992"
           cy="167.61723"
           r="22.424883" />
      </g>
      <g
         id="g41">
        <path
           id="path28"
           style="fill:none;fill-opacity:1;fill-rule:nonzero;stroke:#000000;stroke-width:2.606;stroke-linejoin:miter;stroke-dasharray:none;stroke-opacity:1"
           d="M 259.86719 33.675781 A 97.160858 97.160858 0 0 0 162.70703 130.83594 A 97.160858 97.160858 0 0 0 163.88477 145.53516 A 50.34721 50.34721 0 0 1 166.28711 145.36328 A 50.34721 50.34721 0 0 1 216.63477 195.71094 A 50.34721 50.34721 0 0 1 212.53711 215.41211 A 97.160858 97.160858 0 0 0 259.86719 227.99609 A 97.160858 97.160858 0 0 0 304.74609 216.74805 A 48.081055 48.081055 0 0 1 302.59766 216.90234 A 48.081055 48.081055 0 0 1 254.51758 168.82031 A 48.081055 48.081055 0 0 1 302.59766 120.74023 A 48.081055 48.081055 0 0 1 350.51953 165.10156 A 97.160858 97.160858 0 0 0 357.02734 130.83594 A 97.160858 97.160858 0 0 0 259.86719 33.675781 z " />
        <circle
           style="fill:none;fill-opacity:1;fill-rule:nonzero;stroke:#000000;stroke-width:2.606;stroke-linejoin:miter;stroke-dasharray:none;stroke-opacity:1"
           id="path32"
           cx="284.3566"
           cy="124.33515"
           r="9.8455544" />
        <circle
           style="fill:none;fill-opacity:1;fill-rule:nonzero;stroke:#000000;stroke-width:2.606;stroke-linejoin:miter;stroke-dasharray:none;stroke-opacity:1"
           id="path33"
           cx="310.27499"
           cy="47.775127"
           r="9.8466225" />
        <path
           id="circle37"
           style="fill:none;fill-opacity:1;fill-rule:nonzero;stroke:#000000;stroke-width:2.606;stroke-linejoin:miter;stroke-dasharray:none;stroke-opacity:1"
           d="M 174.16406 85.584731 A 85.704994 85.704994 0 0 1 200.28202 147.18613 L 200.28202 147.18613 A 85.704994 85.704994 0 0 1 199.60586 157.93059 " />
        <path
           id="circle40"
           style="fill:none;fill-opacity:1;fill-rule:nonzero;stroke:#000000;stroke-width:2.606;stroke-linejoin:miter;stroke-dasharray:none;stroke-opacity:1"
           d="M 180.16895 75.587827 A 97.101067 97.101067 0 0 1 211.67809 147.18613 L 211.67809 147.18613 A 97.101067 97.101067 0 0 1 209.1825 169.05899 " />
        <path
           id="circle41"
           style="fill:none;fill-opacity:1;fill-rule:nonzero;stroke:#000000;stroke-width:2.606;stroke-linejoin:miter;stroke-dasharray:none;stroke-opacity:1"
           d="M 186.21173 67.516176 A 107.13931 107.13931 0 0 1 221.71634 147.18613 L 221.71634 147.18613 A 107.13931 107.13931 0 0 1 215.34758 183.5747 " />
      </g>
    </g>
    <circle
       style="fill:#000000;fill-opacity:1;fill-rule:nonzero;stroke:#000000;stroke-width:2.89113;stroke-linejoin:miter;stroke-dasharray:none;stroke-opacity:1"
       id="circle42"
       cx="430.5647"
       cy="159.74277"
       r="7.6987243" />
    <circle
       style="fill:none;fill-opacity:1;fill-rule:nonzero;stroke:#000000;stroke-width:2.606;stroke-linejoin:miter;stroke-dasharray:none;stroke-opacity:1"
       id="path42"
       cx="123.17242"
       cy="310.88336"
       r="69.975174" />
    <circle
       style="fill:none;fill-opacity:1;fill-rule:nonzero;stroke:#000000;stroke-width:2.606;stroke-linejoin:miter;stroke-dasharray:none;stroke-opacity:1"
       id="path53"
       cx="123.17242"
       cy="269.36127"
       r="19.996025" />
    <circle
       style="fill:none;fill-opacity:1;fill-rule:nonzero;stroke:#000000;stroke-width:2.606;stroke-linejoin:miter;stroke-dasharray:none;stroke-opacity:1"
       id="path54"
       cx="81.65332"
       cy="310.88336"
       r="19.996582" />
    <circle
       style="fill:none;fill-opacity:1;fill-rule:nonzero;stroke:#000000;stroke-width:2.606;stroke-linejoin:miter;stroke-dasharray:none;stroke-opacity:1"
       id="path55"
       cx="123.17242"
       cy="352.40601"
       r="19.995991" />
    <circle
       style="fill:none;fill-opacity:1;fill-rule:nonzero;stroke:#000000;stroke-width:2.606;stroke-linejoin:miter;stroke-dasharray:none;stroke-opacity:1"
       id="path56"
       cx="164.69403"
       cy="310.88336"
       r="19.993103" />
    <circle
       style="fill:#000000;fill-opacity:1;fill-rule:nonzero;stroke:#000000;stroke-width:2.606;stroke-linejoin:miter;stroke-dasharray:none;stroke-opacity:1"
       id="path57"
       cx="103.17642"
       cy="352.40601"
       r="5.2622757" />
    <circle
       style="fill:#000000;fill-opacity:1;fill-rule:nonzero;stroke:#000000;stroke-width:2.606;stroke-linejoin:miter;stroke-dasharray:none;stroke-opacity:1"
       id="path58"
       cx="143.16841"
       cy="352.40601"
       r="5.2587609" />
    <circle
       style="fill:#000000;fill-opacity:1;fill-rule:nonzero;stroke:#000000;stroke-width:2.606;stroke-linejoin:miter;stroke-dasharray:none;stroke-opacity:1"
       id="path59"
       cx="81.65332"
       cy="330.87994"
       r="5.2576299" />
    <circle
       style="fill:#000000;fill-opacity:1;fill-rule:nonzero;stroke:#000000;stroke-width:2.606;stroke-linejoin:miter;stroke-dasharray:none;stroke-opacity:1"
       id="path60"
       cx="81.65332"
       cy="290.88678"
       r="5.2587891" />
    <circle
       style="fill:#000000;fill-opacity:1;fill-rule:nonzero;stroke:#000000;stroke-width:2.606;stroke-linejoin:miter;stroke-dasharray:none;stroke-opacity:1"
       id="path61"
       cx="103.17639"
       cy="269.36127"
       r="5.259582" />
    <circle
       style="fill:#000000;fill-opacity:1;fill-rule:nonzero;stroke:#000000;stroke-width:2.606;stroke-linejoin:miter;stroke-dasharray:none;stroke-opacity:1"
       id="path62"
       cx="143.16844"
       cy="269.36127"
       r="5.2610402" />
    <circle
       style="fill:#000000;fill-opacity:1;fill-rule:nonzero;stroke:#000000;stroke-width:2.606;stroke-linejoin:miter;stroke-dasharray:none;stroke-opacity:1"
       id="path63"
       cx="164.69403"
       cy="330.87646"
       r="5.2620234" />
    <circle
       style="fill:#000000;fill-opacity:1;fill-rule:nonzero;stroke:#000000;stroke-width:2.606;stroke-linejoin:miter;stroke-dasharray:none;stroke-opacity:1"
       id="path64"
       cx="164.69403"
       cy="290.89026"
       r="5.2581172" />
    <circle
       style="fill:none;fill-opacity:1;fill-rule:nonzero;stroke:#000000;stroke-width:2.606;stroke-linejoin:miter;stroke-dasharray:none;stroke-opacity:1"
       id="path65"
       cx="144.70093"
       cy="310.88336"
       r="7.3966579" />
    <circle
       style="fill:#000000;fill-opacity:1;fill-rule:nonzero;stroke:#000000;stroke-width:2.606;stroke-linejoin:miter;stroke-dasharray:none;stroke-opacity:1"
       id="circle65"
       cx="164.69403"
       cy="310.88336"
       r="8.5406275" />
    <circle
       style="fill:none;fill-opacity:1;fill-rule:nonzero;stroke:#000000;stroke-width:3.6;stroke-dasharray:none;stroke-opacity:1"
       id="circle67"
       cx="256"
       cy="256"
       r="236.64034" />
    <g
       id="g79">
      <circle
         style="fill:none;fill-opacity:1;fill-rule:nonzero;stroke:#000000;stroke-width:2.606;stroke-linejoin:miter;stroke-dasharray:none;stroke-opacity:1"
         id="circle77"
         cx="166.28711"
         cy="195.71094"
         r="40.84375" />
      <circle
         style="fill:none;fill-opacity:1;fill-rule:nonzero;stroke:#000000;stroke-width:2.606;stroke-linejoin:miter;stroke-dasharray:none;stroke-opacity:1"
         id="circle78"
         cx="136.63992"
         cy="167.61723"
         r="12.49116" />
      <circle
         style="fill:none;fill-opacity:1;fill-rule:nonzero;stroke:#000000;stroke-width:2.606;stroke-linejoin:miter;stroke-dasharray:none;stroke-opacity:1"
         id="circle79"
         cx="136.63992"
         cy="167.61723"
         r="22.424883" />
    </g>
    <path
       id="path79"
       style="fill:none;fill-opacity:1;fill-rule:nonzero;stroke:#000000;stroke-width:2.606;stroke-linejoin:miter;stroke-dasharray:none;stroke-opacity:1"
       d="m 259.86719,33.675781 a 97.160858,97.160858 0 0 0 -97.16016,97.160159 97.160858,97.160858 0 0 0 1.17774,14.69922 50.34721,50.34721 0 0 1 2.40234,-0.17188 50.34721,50.34721 0 0 1 50.34766,50.34766 50.34721,50.34721 0 0 1 -4.09766,19.70117 97.160858,97.160858 0 0 0 47.33008,12.58398 97.160858,97.160858 0 0 0 44.8789,-11.24804 48.081055,48.081055 0 0 1 -2.14843,0.15429 48.081055,48.081055 0 0 1 -48.08008,-48.08203 48.081055,48.081055 0 0 1 48.08008,-48.08008 48.081055,48.081055 0 0 1 47.92187,44.36133 97.160858,97.160858 0 0 0 6.50781,-34.26562 97.160858,97.160858 0 0 0 -97.16015,-97.160159 z" />
    <circle
       style="fill:none;fill-opacity:1;fill-rule:nonzero;stroke:#000000;stroke-width:2.606;stroke-linejoin:miter;stroke-dasharray:none;stroke-opacity:1"
       id="circle80"
       cx="284.3566"
       cy="124.33515"
       r="9.8455544" />
    <circle
       style="fill:none;fill-opacity:1;fill-rule:nonzero;stroke:#000000;stroke-width:2.606;stroke-linejoin:miter;stroke-dasharray:none;stroke-opacity:1"
       id="circle81"
       cx="310.27499"
       cy="47.775127"
       r="9.8466225" />
    <path
       id="path81"
       style="fill:none;fill-opacity:1;fill-rule:nonzero;stroke:#000000;stroke-width:2.606;stroke-linejoin:miter;stroke-dasharray:none;stroke-opacity:1"
       d="m 320.0937,124.0424 a 60.181326,60.181326 0 0 1 12.96216,-45.159835 v 0 a 60.181326,60.181326 0 0 1 5.11613,-5.565306" />
    <path
       id="path82"
       style="fill:none;fill-opacity:1;fill-rule:nonzero;stroke:#000000;stroke-width:2.606;stroke-linejoin:miter;stroke-dasharray:none;stroke-opacity:1"
       d="m 180.16895,75.587827 a 97.101067,97.101067 0 0 1 31.50914,71.598303 v 0 a 97.101067,97.101067 0 0 1 -2.49559,21.87286" />
    <path
       id="path83"
       style="fill:none;fill-opacity:1;fill-rule:nonzero;stroke:#000000;stroke-width:2.606;stroke-linejoin:miter;stroke-dasharray:none;stroke-opacity:1"
       d="m 186.21173,67.516176 a 107.13931,107.13931 0 0 1 35.50461,79.669954 v 0 a 107.13931,107.13931 0 0 1 -6.36876,36.38857" />
  </g>
</svg>
